<mxfile host="app.diagrams.net" modified="2024-03-06T22:25:40.669Z" agent="Mozilla/5.0 (Windows NT 10.0; Win64; x64) AppleWebKit/537.36 (KHTML, like Gecko) Chrome/122.0.0.0 Safari/537.36" etag="KAVgUpGCGM126HMcqsQp" version="24.0.2" type="github">
  <diagram id="prtHgNgQTEPvFCAcTncT" name="Page-1">
    <mxGraphModel dx="1434" dy="782" grid="1" gridSize="10" guides="1" tooltips="1" connect="1" arrows="1" fold="1" page="1" pageScale="1" pageWidth="600" pageHeight="700" math="0" shadow="0">
      <root>
        <mxCell id="0" />
        <mxCell id="1" parent="0" />
        <mxCell id="dNxyNK7c78bLwvsdeMH5-19" value="Avaliação" style="swimlane;html=1;childLayout=stackLayout;resizeParent=1;resizeParentMax=0;horizontal=0;startSize=20;horizontalStack=0;" parent="1" vertex="1">
          <mxGeometry x="120" y="120" width="880" height="440" as="geometry" />
        </mxCell>
        <mxCell id="dNxyNK7c78bLwvsdeMH5-20" value="Cliente" style="swimlane;html=1;startSize=20;horizontal=0;" parent="dNxyNK7c78bLwvsdeMH5-19" vertex="1">
          <mxGeometry x="20" width="860" height="160" as="geometry" />
        </mxCell>
        <mxCell id="dNxyNK7c78bLwvsdeMH5-25" value="" style="edgeStyle=orthogonalEdgeStyle;rounded=0;orthogonalLoop=1;jettySize=auto;html=1;" parent="dNxyNK7c78bLwvsdeMH5-20" source="dNxyNK7c78bLwvsdeMH5-23" edge="1">
          <mxGeometry relative="1" as="geometry">
            <mxPoint x="120" y="60" as="targetPoint" />
          </mxGeometry>
        </mxCell>
        <mxCell id="dNxyNK7c78bLwvsdeMH5-23" value="" style="ellipse;whiteSpace=wrap;html=1;fillColor=#d5e8d4;strokeColor=#82b366;" parent="dNxyNK7c78bLwvsdeMH5-20" vertex="1">
          <mxGeometry x="40" y="40" width="40" height="40" as="geometry" />
        </mxCell>
        <mxCell id="ehJHQWUn2DoETc1FjZwP-3" value="" style="rhombus;whiteSpace=wrap;html=1;fillColor=#ffe6cc;strokeColor=#d79b00;" parent="dNxyNK7c78bLwvsdeMH5-20" vertex="1">
          <mxGeometry x="120" y="30" width="60" height="60" as="geometry" />
        </mxCell>
        <mxCell id="ehJHQWUn2DoETc1FjZwP-5" value="" style="endArrow=none;dashed=1;html=1;rounded=0;" parent="dNxyNK7c78bLwvsdeMH5-20" edge="1">
          <mxGeometry width="50" height="50" relative="1" as="geometry">
            <mxPoint x="180" y="60" as="sourcePoint" />
            <mxPoint x="300" y="60" as="targetPoint" />
          </mxGeometry>
        </mxCell>
        <mxCell id="ehJHQWUn2DoETc1FjZwP-9" value="Sim" style="text;html=1;align=center;verticalAlign=middle;resizable=0;points=[];autosize=1;strokeColor=none;fillColor=none;" parent="dNxyNK7c78bLwvsdeMH5-20" vertex="1">
          <mxGeometry x="183" y="23" width="40" height="30" as="geometry" />
        </mxCell>
        <mxCell id="ehJHQWUn2DoETc1FjZwP-15" value="Cliente avalia o prestador de serviço" style="rounded=0;whiteSpace=wrap;html=1;" parent="dNxyNK7c78bLwvsdeMH5-20" vertex="1">
          <mxGeometry x="370" y="30" width="120" height="60" as="geometry" />
        </mxCell>
        <mxCell id="ehJHQWUn2DoETc1FjZwP-17" value="" style="endArrow=none;dashed=1;html=1;rounded=0;startArrow=classicThin;startFill=1;" parent="dNxyNK7c78bLwvsdeMH5-20" edge="1">
          <mxGeometry width="50" height="50" relative="1" as="geometry">
            <mxPoint x="300" y="190" as="sourcePoint" />
            <mxPoint x="300" y="60" as="targetPoint" />
          </mxGeometry>
        </mxCell>
        <mxCell id="ehJHQWUn2DoETc1FjZwP-23" value="" style="endArrow=classicThin;dashed=1;html=1;rounded=0;startArrow=none;startFill=0;endFill=1;entryX=0.5;entryY=0;entryDx=0;entryDy=0;" parent="dNxyNK7c78bLwvsdeMH5-20" edge="1" target="ehJHQWUn2DoETc1FjZwP-24">
          <mxGeometry width="50" height="50" relative="1" as="geometry">
            <mxPoint x="490" y="63" as="sourcePoint" />
            <mxPoint x="550" y="210" as="targetPoint" />
            <Array as="points">
              <mxPoint x="550" y="63" />
            </Array>
          </mxGeometry>
        </mxCell>
        <mxCell id="ehJHQWUn2DoETc1FjZwP-41" value="Formulário para&amp;nbsp;&lt;div&gt;o cliente&lt;/div&gt;" style="text;html=1;align=center;verticalAlign=middle;resizable=0;points=[];autosize=1;strokeColor=none;fillColor=none;" parent="dNxyNK7c78bLwvsdeMH5-20" vertex="1">
          <mxGeometry x="310" y="110" width="110" height="40" as="geometry" />
        </mxCell>
        <mxCell id="dNxyNK7c78bLwvsdeMH5-21" value="Sistema" style="swimlane;html=1;startSize=20;horizontal=0;" parent="dNxyNK7c78bLwvsdeMH5-19" vertex="1">
          <mxGeometry x="20" y="160" width="860" height="140" as="geometry" />
        </mxCell>
        <mxCell id="ehJHQWUn2DoETc1FjZwP-22" value="" style="endArrow=classicThin;dashed=1;html=1;rounded=0;entryX=0.333;entryY=1;entryDx=0;entryDy=0;entryPerimeter=0;startArrow=none;startFill=0;endFill=1;" parent="dNxyNK7c78bLwvsdeMH5-21" target="ehJHQWUn2DoETc1FjZwP-15" edge="1">
          <mxGeometry width="50" height="50" relative="1" as="geometry">
            <mxPoint x="340" y="75" as="sourcePoint" />
            <mxPoint x="410" y="-65" as="targetPoint" />
            <Array as="points">
              <mxPoint x="410" y="75" />
            </Array>
          </mxGeometry>
        </mxCell>
        <mxCell id="ehJHQWUn2DoETc1FjZwP-24" value="Nota atualizada" style="rounded=0;whiteSpace=wrap;html=1;" parent="dNxyNK7c78bLwvsdeMH5-21" vertex="1">
          <mxGeometry x="490" y="40" width="120" height="60" as="geometry" />
        </mxCell>
        <mxCell id="ehJHQWUn2DoETc1FjZwP-25" value="" style="endArrow=classicThin;html=1;rounded=0;startArrow=none;startFill=0;endFill=1;" parent="dNxyNK7c78bLwvsdeMH5-21" edge="1">
          <mxGeometry width="50" height="50" relative="1" as="geometry">
            <mxPoint x="610" y="70" as="sourcePoint" />
            <mxPoint x="710" y="70" as="targetPoint" />
          </mxGeometry>
        </mxCell>
        <mxCell id="ehJHQWUn2DoETc1FjZwP-26" value="" style="ellipse;whiteSpace=wrap;html=1;aspect=fixed;fillColor=#f8cecc;strokeColor=#b85450;" parent="dNxyNK7c78bLwvsdeMH5-21" vertex="1">
          <mxGeometry x="710" y="35" width="70" height="70" as="geometry" />
        </mxCell>
        <mxCell id="ehJHQWUn2DoETc1FjZwP-40" value="Envia formulário de avaliação" style="rhombus;whiteSpace=wrap;html=1;fillColor=#ffe6cc;strokeColor=#d79b00;" parent="dNxyNK7c78bLwvsdeMH5-21" vertex="1">
          <mxGeometry x="260" y="35" width="80" height="80" as="geometry" />
        </mxCell>
        <mxCell id="ehJHQWUn2DoETc1FjZwP-43" value="" style="endArrow=none;dashed=1;html=1;rounded=0;endFill=0;startArrow=classicThin;startFill=1;" parent="dNxyNK7c78bLwvsdeMH5-21" edge="1">
          <mxGeometry width="50" height="50" relative="1" as="geometry">
            <mxPoint x="411" y="180" as="sourcePoint" />
            <mxPoint x="411" y="74" as="targetPoint" />
          </mxGeometry>
        </mxCell>
        <mxCell id="ehJHQWUn2DoETc1FjZwP-47" value="Formulário para&amp;nbsp;&lt;div&gt;o prestador&lt;/div&gt;" style="text;html=1;align=center;verticalAlign=middle;resizable=0;points=[];autosize=1;strokeColor=none;fillColor=none;" parent="dNxyNK7c78bLwvsdeMH5-21" vertex="1">
          <mxGeometry x="310" y="100" width="110" height="40" as="geometry" />
        </mxCell>
        <mxCell id="JlIleffEJivtEUEK7PpD-2" value="" style="ellipse;whiteSpace=wrap;html=1;aspect=fixed;fillColor=#f8cecc;strokeColor=#b85450;" parent="dNxyNK7c78bLwvsdeMH5-21" vertex="1">
          <mxGeometry x="210" y="52.5" width="45" height="45" as="geometry" />
        </mxCell>
        <mxCell id="JlIleffEJivtEUEK7PpD-1" style="edgeStyle=orthogonalEdgeStyle;rounded=0;orthogonalLoop=1;jettySize=auto;html=1;exitX=1;exitY=0.5;exitDx=0;exitDy=0;" parent="dNxyNK7c78bLwvsdeMH5-21" target="JlIleffEJivtEUEK7PpD-2" edge="1">
          <mxGeometry relative="1" as="geometry">
            <mxPoint x="210" y="75" as="targetPoint" />
            <mxPoint x="180" y="75" as="sourcePoint" />
          </mxGeometry>
        </mxCell>
        <mxCell id="JlIleffEJivtEUEK7PpD-4" value="Aguardo o final do atendimento" style="rhombus;whiteSpace=wrap;html=1;fillColor=#ffe6cc;strokeColor=#d79b00;" parent="dNxyNK7c78bLwvsdeMH5-21" vertex="1">
          <mxGeometry x="110" y="30" width="80" height="80" as="geometry" />
        </mxCell>
        <mxCell id="dNxyNK7c78bLwvsdeMH5-22" value="Prestador de serviço" style="swimlane;html=1;startSize=20;horizontal=0;" parent="dNxyNK7c78bLwvsdeMH5-19" vertex="1">
          <mxGeometry x="20" y="300" width="860" height="140" as="geometry" />
        </mxCell>
        <mxCell id="ehJHQWUn2DoETc1FjZwP-29" value="" style="ellipse;whiteSpace=wrap;html=1;fillColor=#d5e8d4;strokeColor=#82b366;" parent="dNxyNK7c78bLwvsdeMH5-22" vertex="1">
          <mxGeometry x="40" y="42" width="40" height="40" as="geometry" />
        </mxCell>
        <mxCell id="ehJHQWUn2DoETc1FjZwP-30" value="" style="edgeStyle=orthogonalEdgeStyle;rounded=0;orthogonalLoop=1;jettySize=auto;html=1;" parent="dNxyNK7c78bLwvsdeMH5-22" edge="1">
          <mxGeometry relative="1" as="geometry">
            <mxPoint x="80" y="61.5" as="sourcePoint" />
            <mxPoint x="120" y="61.5" as="targetPoint" />
          </mxGeometry>
        </mxCell>
        <mxCell id="ehJHQWUn2DoETc1FjZwP-31" value="" style="rhombus;whiteSpace=wrap;html=1;fillColor=#ffe6cc;strokeColor=#d79b00;" parent="dNxyNK7c78bLwvsdeMH5-22" vertex="1">
          <mxGeometry x="120" y="31.5" width="60" height="60" as="geometry" />
        </mxCell>
        <mxCell id="ehJHQWUn2DoETc1FjZwP-32" value="Sim" style="text;html=1;align=center;verticalAlign=middle;resizable=0;points=[];autosize=1;strokeColor=none;fillColor=none;" parent="dNxyNK7c78bLwvsdeMH5-22" vertex="1">
          <mxGeometry x="180" y="12" width="40" height="30" as="geometry" />
        </mxCell>
        <mxCell id="ehJHQWUn2DoETc1FjZwP-33" value="Serviço finalizado?" style="text;html=1;align=center;verticalAlign=middle;resizable=0;points=[];autosize=1;strokeColor=none;fillColor=none;" parent="dNxyNK7c78bLwvsdeMH5-22" vertex="1">
          <mxGeometry x="90" y="100" width="120" height="30" as="geometry" />
        </mxCell>
        <mxCell id="ehJHQWUn2DoETc1FjZwP-34" value="Não" style="text;html=1;align=center;verticalAlign=middle;resizable=0;points=[];autosize=1;strokeColor=none;fillColor=none;" parent="dNxyNK7c78bLwvsdeMH5-22" vertex="1">
          <mxGeometry x="100" y="1.5" width="50" height="30" as="geometry" />
        </mxCell>
        <mxCell id="ehJHQWUn2DoETc1FjZwP-35" value="" style="endArrow=none;dashed=1;html=1;rounded=0;" parent="dNxyNK7c78bLwvsdeMH5-22" edge="1">
          <mxGeometry width="50" height="50" relative="1" as="geometry">
            <mxPoint x="150" y="30" as="sourcePoint" />
            <mxPoint x="150" y="-30" as="targetPoint" />
          </mxGeometry>
        </mxCell>
        <mxCell id="ehJHQWUn2DoETc1FjZwP-45" value="Prestador de serviço avalia o cliente" style="rounded=0;whiteSpace=wrap;html=1;" parent="dNxyNK7c78bLwvsdeMH5-22" vertex="1">
          <mxGeometry x="350" y="42" width="120" height="60" as="geometry" />
        </mxCell>
        <mxCell id="ehJHQWUn2DoETc1FjZwP-46" value="" style="endArrow=classicThin;dashed=1;html=1;rounded=0;entryX=0.5;entryY=1;entryDx=0;entryDy=0;startArrow=none;startFill=0;endFill=1;" parent="dNxyNK7c78bLwvsdeMH5-22" target="ehJHQWUn2DoETc1FjZwP-24" edge="1">
          <mxGeometry width="50" height="50" relative="1" as="geometry">
            <mxPoint x="470" y="70" as="sourcePoint" />
            <mxPoint x="520" y="20" as="targetPoint" />
            <Array as="points">
              <mxPoint x="550" y="70" />
            </Array>
          </mxGeometry>
        </mxCell>
        <mxCell id="Pm4cYTSpZwBCsrkmHSwo-3" style="edgeStyle=orthogonalEdgeStyle;rounded=0;orthogonalLoop=1;jettySize=auto;html=1;exitX=1;exitY=0.5;exitDx=0;exitDy=0;entryX=0.5;entryY=1;entryDx=0;entryDy=0;dashed=1;" edge="1" parent="dNxyNK7c78bLwvsdeMH5-19" source="ehJHQWUn2DoETc1FjZwP-31" target="ehJHQWUn2DoETc1FjZwP-40">
          <mxGeometry relative="1" as="geometry">
            <mxPoint x="320" y="362" as="targetPoint" />
          </mxGeometry>
        </mxCell>
        <mxCell id="ehJHQWUn2DoETc1FjZwP-12" value="Serviço finalizado?" style="text;html=1;align=center;verticalAlign=middle;resizable=0;points=[];autosize=1;strokeColor=none;fillColor=none;" parent="1" vertex="1">
          <mxGeometry x="230" y="118" width="120" height="30" as="geometry" />
        </mxCell>
        <mxCell id="ehJHQWUn2DoETc1FjZwP-21" value="Não" style="text;html=1;align=center;verticalAlign=middle;resizable=0;points=[];autosize=1;strokeColor=none;fillColor=none;" parent="1" vertex="1">
          <mxGeometry x="246" y="209" width="50" height="30" as="geometry" />
        </mxCell>
        <mxCell id="ehJHQWUn2DoETc1FjZwP-16" value="" style="endArrow=none;dashed=1;html=1;rounded=0;entryX=0.88;entryY=0.033;entryDx=0;entryDy=0;entryPerimeter=0;startArrow=classicThin;startFill=1;exitX=0.5;exitY=0;exitDx=0;exitDy=0;" parent="1" target="ehJHQWUn2DoETc1FjZwP-21" edge="1" source="JlIleffEJivtEUEK7PpD-4">
          <mxGeometry width="50" height="50" relative="1" as="geometry">
            <mxPoint x="288" y="320" as="sourcePoint" />
            <mxPoint x="288" y="200" as="targetPoint" />
          </mxGeometry>
        </mxCell>
      </root>
    </mxGraphModel>
  </diagram>
</mxfile>
